<svg xmlns="http://www.w3.org/2000/svg" width="97" height="87.164" viewBox="0 0 97 87.164">
  <g id="_6" data-name="6" transform="translate(-194 -1178)">
    <circle id="Ellipse_430" data-name="Ellipse 430" cx="41" cy="41" r="41" transform="translate(209 1178)" fill="#0675c1" opacity="0.1"/>
    <path id="Path_49645" data-name="Path 49645" d="M217.579,136a1.579,1.579,0,1,0,1.579,1.579A1.579,1.579,0,0,0,217.579,136Z" transform="translate(4.318 1081.791)"/>
    <path id="Path_49646" data-name="Path 49646" d="M289.579,136a1.579,1.579,0,1,0,1.579,1.579A1.579,1.579,0,0,0,289.579,136Z" transform="translate(-58.207 1081.791)"/>
    <path id="Path_49647" data-name="Path 49647" d="M243.158,177.053A1.054,1.054,0,0,1,242.105,176H240a3.158,3.158,0,1,0,6.316,0h-2.105A1.054,1.054,0,0,1,243.158,177.053Z" transform="translate(-16.523 1047.055)"/>
    <path id="Path_49648" data-name="Path 49648" d="M78.792,54.149a1.054,1.054,0,0,0-.854-.235L68.421,55.5a4.79,4.79,0,0,0-1.763.668l-.725-1.832a7.012,7.012,0,0,0-1.208-2.017L65,49.83a18.234,18.234,0,0,0,.111-1.91,17.181,17.181,0,0,0-1.4-6.783,15.206,15.206,0,0,1-1.2-6.724l.179-3.644c.011-.23.022-.467.022-.7a14.072,14.072,0,1,0-28.127.7L34.76,34.4c.011.271.02.527.02.781a15.008,15.008,0,0,1-1.22,5.954,17.2,17.2,0,0,0-1.29,8.7l.274,2.455a7.147,7.147,0,0,0-.834,1.206L30.274,49.9a3.1,3.1,0,1,0-5.652,2.538l.2.4H22.755A5.29,5.29,0,0,1,20.4,52.29l-1.049-.525A2.316,2.316,0,0,0,16,53.837v2.971a3.141,3.141,0,0,0,1.746,2.825l1.713.857a7.407,7.407,0,0,0,3.3.778h.614v3.118l-.756,9.831A4.6,4.6,0,0,0,27.2,79.164q.117,0,.232-.006c.067,0,.134.006.2.006a4.237,4.237,0,0,0,3.981-2.784l4.805-8.934a9.208,9.208,0,0,0,1.693,3.665v8.053h2.105V70.742a1.053,1.053,0,0,0-.244-.674,7.178,7.178,0,0,1,.918-10.1l-1.348-1.618a9.279,9.279,0,0,0-1.308,1.335,1.083,1.083,0,0,0-.109.132h0l-.019.033-.013.023a9.219,9.219,0,0,0-1.369,2.559L31.791,71.6V58.808l1.5-3.725a5.046,5.046,0,0,1,1.108-1.7,5.328,5.328,0,0,1,3.776-1.591h3.523l6.017,11.031a1.053,1.053,0,0,0,1.848,0l2.234-4.1V72.848a1.053,1.053,0,0,0,.846,1.032l4.417.883v4.4h2.105v-3.98l4.028.8c.026,0,.148.017.183.017h1.992l.2.377a4.265,4.265,0,0,0,4,2.782,3.962,3.962,0,0,0,.694-.057,4.267,4.267,0,0,0,3.3-2.749l2.8-.467h0a2.1,2.1,0,0,0,1.755-1.969l.211-.042a1.053,1.053,0,0,0,.847-1.032v-17.9A1.053,1.053,0,0,0,78.792,54.149ZM43.973,51.575a2.529,2.529,0,0,0,1.5-2.309V46.045a10.532,10.532,0,0,0,6.316,0v3.222a2.529,2.529,0,0,0,1.5,2.308L52.03,53.9H45.24Zm4.662-7.151A8.431,8.431,0,0,1,40.213,36V31.289a15.379,15.379,0,0,0,4.556-5.216,27.269,27.269,0,0,0,12.288,5.563V36A8.431,8.431,0,0,1,48.635,44.424ZM62.862,53.4l.019.02a4.879,4.879,0,0,1,1.092,1.686l.452,1.142a4.788,4.788,0,0,0-1.889-.75L54.3,54.127l1.273-2.334h3.512A5.216,5.216,0,0,1,62.862,53.4Zm.615,5.76-4.79-.958-4.79-.958V56.194l8.292,1.382a2.666,2.666,0,0,1,2.023,1.587Zm5.29-1.586,8.291-1.382v1.053l-4.951.99-4.627.925h-.735a2.667,2.667,0,0,1,2.022-1.586ZM20.4,58.606l-1.713-.857a1.047,1.047,0,0,1-.582-.942V53.837a.211.211,0,0,1,.3-.188l1.049.525a7.407,7.407,0,0,0,3.3.778h3.773a1.053,1.053,0,0,0,.942-1.524L26.505,51.5a.995.995,0,0,1,.649-1.41h0a1,1,0,0,1,1.165.6L29.685,54.1v5.061H22.755a5.29,5.29,0,0,1-2.354-.556Zm9.285,2.661v2.105H25.475V61.268Zm-4.973,13.11.684-8.9h4.289v9.09a2.492,2.492,0,0,1-2.31,2.481,1.077,1.077,0,0,0-.118.006c-.021,0-.041,0-.062,0a2.49,2.49,0,0,1-2.483-2.681ZM38.124,59.821a1.051,1.051,0,0,1,.067-.081l-.064.083Zm-3.64-9.139L34.363,49.6A15.094,15.094,0,0,1,35.5,41.965a17.1,17.1,0,0,0,1.391-6.784c0-.294-.011-.583-.022-.873l-.179-3.643a11.967,11.967,0,1,1,23.919-.6c0,.186-.01.388-.02.6l-.179,3.64a17.319,17.319,0,0,0,1.368,7.657A15.088,15.088,0,0,1,63,47.919a16.127,16.127,0,0,1-.1,1.684l-.12,1.085a7.363,7.363,0,0,0-3.7-1H54.319a.427.427,0,0,1-.421-.421V45.113A10.531,10.531,0,0,0,59.162,36V30.738a1.053,1.053,0,0,0-.9-1.042A25.17,25.17,0,0,1,45.7,24.111l-.6-.5a1.053,1.053,0,0,0-1.616.338l-.408.816a13.263,13.263,0,0,1-4.5,5.1,1.053,1.053,0,0,0-.469.876V36a10.531,10.531,0,0,0,5.264,9.111v4.153a.427.427,0,0,1-.421.421H38.171a7.416,7.416,0,0,0-3.686.995Zm14.151,9.44L46.389,56h4.492Zm5.264-.728,8.422,1.684V73.669L53.9,71.985Zm10.527,1.874h2.105V73.9H64.426ZM69.9,77.032a1.884,1.884,0,0,1-.333.026A2.157,2.157,0,0,1,67.708,76l.059-.009.023,0H67.8l2.164-.433a2.078,2.078,0,0,0,1.06.923,2.195,2.195,0,0,1-1.127.558Zm6.11-3.218h0l-4.211.7V70.6a.317.317,0,0,1,.265-.313l3.576-.6a.348.348,0,0,1,.054,0,.318.318,0,0,1,.316.318v3.807Zm-.716-6.2-3.576.6a2.416,2.416,0,0,0-2.025,2.39v2.856l-1.053.211V61.078l8.422-1.684V68.01a2.416,2.416,0,0,0-1.769-.393Z" transform="translate(178 1186)"/>
  </g>
</svg>
