<svg xmlns="http://www.w3.org/2000/svg" width="87.933" height="87" viewBox="0 0 87.933 87">
  <g id="_8" data-name="8" transform="translate(-733.067 -1178)">
    <circle id="Ellipse_430" data-name="Ellipse 430" cx="41" cy="41" r="41" transform="translate(739 1178)" fill="#0675c1" opacity="0.1"/>
    <g id="video_1_" data-name="video (1)" transform="translate(733.067 1203)">
      <path id="Path_43610" data-name="Path 43610" d="M55.8,114.633a1.033,1.033,0,0,1-1.033,1.033H44.433v-3.534a7.265,7.265,0,0,0-5.329-6.98l-6.038-1.642v-1.564a7.234,7.234,0,0,0,3.1-5.913V94.077c.263-.121.43-.206.462-.219a1.033,1.033,0,0,0,.572-.925v-6.2l5.538-2.13a1.033,1.033,0,0,0,0-1.93L29.3,77.507a1.044,1.044,0,0,0-.742,0L15.129,82.673a1.034,1.034,0,0,0-.662.96v4.739l-2.8,2.8,1.461,1.461,1.336-1.336v1.639h2.067V91.295l1.336,1.336,1.461-1.461-2.8-2.8V85.138l4.133,1.6v6.2a1.033,1.033,0,0,0,.572.93c.032.016.2.1.462.219v1.951a7.091,7.091,0,0,0,3.1,5.916v1.561l-6.041,1.643a7.264,7.264,0,0,0-5.326,6.979v3.534H3.1a1.033,1.033,0,0,1-1.033-1.033v-40.3H31V72.267H2.067V67.1A1.033,1.033,0,0,1,3.1,66.067H31V64H3.1A3.1,3.1,0,0,0,0,67.1v47.533a3.1,3.1,0,0,0,3.1,3.1H54.767a3.1,3.1,0,0,0,3.1-3.1V76.4H55.8ZM26.867,104.3v-1.343a7.029,7.029,0,0,0,4.133,0V104.3a1.022,1.022,0,0,0,.361.768l-2.427,2.022-2.427-2.021a1.022,1.022,0,0,0,.361-.769Zm2.067-24.727,10.554,4.06-10.554,4.06-10.554-4.06Zm-.371,10.192a1.044,1.044,0,0,0,.742,0l5.829-2.242v4.753a17.731,17.731,0,0,1-6.2,1.691,17.776,17.776,0,0,1-6.2-1.692V87.522Zm-4.8,6.268V94.924a16.113,16.113,0,0,0,5.167,1.109A16.113,16.113,0,0,0,34.1,94.924v1.109a5.166,5.166,0,0,1-7.758,4.463,4.881,4.881,0,0,1-1.063-.815,5.1,5.1,0,0,1-1.513-3.647Zm-8.267,16.1a5.192,5.192,0,0,1,3.806-4.986l4.874-1.325,4.092,3.41a1.033,1.033,0,0,0,1.323,0l4.092-3.41,4.871,1.324a5.194,5.194,0,0,1,3.809,4.987v3.534h-3.1v-4.133H37.2v4.133H20.667v-4.133H18.6v4.133H15.5Zm0,0" transform="translate(0 -55.733)"/>
      <path id="Path_43611" data-name="Path 43611" d="M48,96h2.067v2.067H48Zm0,0" transform="translate(-41.8 -83.6)"/>
      <path id="Path_43612" data-name="Path 43612" d="M80,96h2.067v2.067H80Zm0,0" transform="translate(-69.667 -83.6)"/>
      <path id="Path_43613" data-name="Path 43613" d="M112,96h2.067v2.067H112Zm0,0" transform="translate(-97.533 -83.6)"/>
      <path id="Path_43614" data-name="Path 43614" d="M279.767,0H259.1A3.1,3.1,0,0,0,256,3.1V15.5a3.1,3.1,0,0,0,3.1,3.1h3.1v4.133a1.033,1.033,0,0,0,.691.975,1.066,1.066,0,0,0,.342.058,1.032,1.032,0,0,0,.807-.387l3.823-4.779h11.9a3.1,3.1,0,0,0,3.1-3.1V3.1a3.1,3.1,0,0,0-3.1-3.1ZM280.8,15.5a1.033,1.033,0,0,1-1.033,1.033h-12.4a1.032,1.032,0,0,0-.807.387l-2.293,2.866V17.567a1.033,1.033,0,0,0-1.033-1.033H259.1a1.033,1.033,0,0,1-1.033-1.033V3.1A1.033,1.033,0,0,1,259.1,2.067h20.667A1.033,1.033,0,0,1,280.8,3.1Zm0,0" transform="translate(-222.933)"/>
      <path id="Path_43615" data-name="Path 43615" d="M304,32h14.467v2.067H304Zm0,0" transform="translate(-264.733 -27.867)"/>
      <path id="Path_43616" data-name="Path 43616" d="M304,64h14.467v2.067H304Zm0,0" transform="translate(-264.733 -55.733)"/>
      <path id="Path_43617" data-name="Path 43617" d="M304,96h14.467v2.067H304Zm0,0" transform="translate(-264.733 -83.6)"/>
    </g>
  </g>
</svg>
