<svg xmlns="http://www.w3.org/2000/svg" width="88" height="84" viewBox="0 0 88 84">
  <g id="_7" data-name="7" transform="translate(-733 -1412)">
    <circle id="Ellipse_430" data-name="Ellipse 430" cx="41" cy="41" r="41" transform="translate(739 1412)" fill="#0675c1" opacity="0.1"/>
    <g id="Page-1" transform="translate(732.576 1436.154)">
      <g id="_026---Idea" data-name="026---Idea" transform="translate(0.424)">
        <path id="Shape" d="M55.927,31.282a2.029,2.029,0,0,0-1.991-1.646H51.978l-.144-.863a2.039,2.039,0,0,0-1.695-1.681c-.193-.03-.387-.051-.579-.077a6.187,6.187,0,0,0-.771-4.523,4.151,4.151,0,0,0-3.008-5.552,8.631,8.631,0,0,0-8.432-7.046c-.1,0-.192.013-.288.016a4.126,4.126,0,0,0-6.312-.785A6.962,6.962,0,0,0,26.961,8a7.043,7.043,0,0,0-5.536,2.727,5.052,5.052,0,0,0-6.457,4.54,4.175,4.175,0,0,0-2.557,3.846,4.125,4.125,0,0,0,.1.865,8.163,8.163,0,0,0-.973,7c-.272.038-.55.071-.811.11a2.041,2.041,0,0,0-1.708,1.68l-.144.866H6.912a2.029,2.029,0,0,0-1.99,1.642L.48,54.079A3.043,3.043,0,0,0,3.473,57.7H24.626c.84,1.386,3.392,2.029,5.8,2.029,2.381,0,4.908-.628,5.773-2.029H57.375a3.043,3.043,0,0,0,2.993-3.622ZM15.478,20.949a2.142,2.142,0,0,1,1.1-3.978,2.1,2.1,0,0,1,1.7.86,1.014,1.014,0,0,0,1.629-1.209A4.1,4.1,0,0,0,17.029,15a3.084,3.084,0,0,1,3.008-2.442,3.162,3.162,0,0,1,.369.041,6.663,6.663,0,0,0-.213.635,1.014,1.014,0,0,0,1.964.507,4.933,4.933,0,0,1,.526-1.27,5.009,5.009,0,0,1,4.278-2.442,4.927,4.927,0,0,1,2.687.811,4.123,4.123,0,0,0-.238,1.33,1.014,1.014,0,1,0,2.029,0,2.134,2.134,0,1,1,4.267,0,1.014,1.014,0,0,0,2.029,0c0-.078-.019-.152-.023-.23a6.584,6.584,0,0,1,6.007,5.078,4.116,4.116,0,0,0-1.313.654,1.014,1.014,0,0,0,1.217,1.623,2.138,2.138,0,0,1,3.136,2.766,2.164,2.164,0,0,1-.961.889,1.014,1.014,0,0,0,.432,1.927,1,1,0,0,0,.43-.1,4.166,4.166,0,0,0,.758-.474,4.332,4.332,0,0,1-.858,4.326l-.024.025a4.381,4.381,0,0,1-5.173.949,4.026,4.026,0,0,1-.491-.306,3.455,3.455,0,0,0,.268-3.57,1.015,1.015,0,1,0-1.813.913,1.51,1.51,0,0,1-.489,1.912,1.531,1.531,0,0,1-2.2-.562,1.015,1.015,0,1,0-1.815.908,3.517,3.517,0,0,0,3.161,1.956,3.479,3.479,0,0,0,1.273-.251,6,6,0,0,0,1.189.811,6.248,6.248,0,0,0,4.685.433,6.465,6.465,0,0,1-4.177,2.561,1.014,1.014,0,0,0,.159,2.015,1.079,1.079,0,0,0,.161-.012,8.336,8.336,0,0,0,1.8-.525,9.07,9.07,0,0,1,.757,1.742,1.046,1.046,0,0,1,.053.328,1.094,1.094,0,0,1-.665,1.006,1.148,1.148,0,0,1-1.31-.352,6.475,6.475,0,0,0-2.969-1.973c-2.192-.734-3.038-1.391-3.4-2.1a9.738,9.738,0,0,0,1.555-.325,1.015,1.015,0,0,0-.6-1.939,7.687,7.687,0,0,1-1.751.322,7.528,7.528,0,0,1-3.362-.507,1.014,1.014,0,0,0-1.137.283,4.343,4.343,0,0,1-7-5.079A1.017,1.017,0,0,0,21.5,26.245a6.335,6.335,0,0,0-.58,1.305,1.522,1.522,0,0,1-1.441-1.5V26.03a1,1,0,0,0-1.014-1,1.024,1.024,0,0,0-1.014,1.027,3.53,3.53,0,0,0,3.15,3.5,6.368,6.368,0,0,0,.092,1.014,6.2,6.2,0,0,1-7.013-8.489,4.089,4.089,0,0,0,.755.6,1.014,1.014,0,0,0,1.047-1.738ZM11.015,29.1c.468-.069.95-.13,1.43-.193a8.19,8.19,0,0,0,8.9,3.609A6.354,6.354,0,0,0,31.293,34.2a9.737,9.737,0,0,0,2.117.383c.49,1.858,1.906,2.984,4.881,3.981a4.5,4.5,0,0,1,2.065,1.36,3.231,3.231,0,0,0,2.451,1.151,3.081,3.081,0,0,0,1.2-.245,3.123,3.123,0,0,0,1.9-2.872,3.009,3.009,0,0,0-.154-.96,11.088,11.088,0,0,0-.9-2.064,8.551,8.551,0,0,0,3.371-5.155,6.354,6.354,0,0,0,.584-.818c.34.044.68.082,1.021.139l3.662,22.025a34.818,34.818,0,0,0-22.056,0V38.43a1.014,1.014,0,1,0-2.029,0v12.7a34.824,34.824,0,0,0-22.056-.008ZM2.683,55.3a1.006,1.006,0,0,1-.213-.832l4.442-22.8H8.535L5.352,50.794A2.036,2.036,0,0,0,7.97,53.06,33.935,33.935,0,0,1,24.723,52l-.3,3.677H3.473a1.021,1.021,0,0,1-.79-.373Zm27.741,2.4c-2.444,0-3.845-.722-4.051-1.044l.349-4.209a21.677,21.677,0,0,1,3.264,1.094,1.023,1.023,0,0,0,.438.1,1.008,1.008,0,0,0,.439-.1,21.605,21.605,0,0,1,3.263-1.1l.349,4.216c-.206.323-1.608,1.045-4.051,1.045Zm27.741-2.4a1.021,1.021,0,0,1-.79.373H36.43l-.3-3.684a33.945,33.945,0,0,1,16.761,1.072A2.035,2.035,0,0,0,55.5,50.791l-3.18-19.125h1.623l4.443,22.8A1.006,1.006,0,0,1,58.165,55.3Z" transform="translate(-0.424 0.115)"/>
        <path id="Shape-2" data-name="Shape" d="M26.691,22.724a1.014,1.014,0,0,0-.072,1.432A6.116,6.116,0,0,0,29.87,26.03,3.022,3.022,0,0,1,27.4,27.3a1.014,1.014,0,0,0,0,2.029,5.03,5.03,0,0,0,4.726-3.253,6.122,6.122,0,0,0,5.008-4.869,1.014,1.014,0,1,0-1.992-.381,4.043,4.043,0,0,1-1.68,2.575,4.141,4.141,0,0,1-5.339-.609,1.014,1.014,0,0,0-1.432-.072Z" transform="translate(-0.052 0.287)"/>
        <path id="Shape-3" data-name="Shape" d="M23.214,21.68a1.014,1.014,0,0,0,1.014-1.014,2.637,2.637,0,0,1,2.637-2.637,1.014,1.014,0,1,0,0-2.029A4.671,4.671,0,0,0,22.2,20.666a1.014,1.014,0,0,0,1.014,1.014Z" transform="translate(-0.112 0.229)"/>
        <path id="Shape-4" data-name="Shape" d="M31.029,2.029V1.014a1.014,1.014,0,1,0-2.029,0V2.029a1.014,1.014,0,1,0,2.029,0Z" transform="translate(-0.014)"/>
        <path id="Shape-5" data-name="Shape" d="M46.429,7.18,45.414,8.195a1.014,1.014,0,1,0,1.434,1.434l1.014-1.014A1.014,1.014,0,1,0,46.429,7.18Z" transform="translate(0.217 0.098)"/>
        <path id="Shape-6" data-name="Shape" d="M13.912,9.926a1.014,1.014,0,0,0,.717-1.731L13.615,7.18A1.014,1.014,0,1,0,12.18,8.615l1.014,1.014a1.014,1.014,0,0,0,.717.3Z" transform="translate(-0.26 0.098)"/>
        <path id="Shape-7" data-name="Shape" d="M21.612,5.744A1.029,1.029,0,0,0,22,5.667a1.014,1.014,0,0,0,.549-1.326L21.384,1.529a1.014,1.014,0,1,0-1.873.777l1.164,2.812a1.014,1.014,0,0,0,.937.626Z" transform="translate(-0.152 0.013)"/>
        <path id="Shape-8" data-name="Shape" d="M39.986.98a1.014,1.014,0,0,0-1.325.549L37.5,4.341a1.014,1.014,0,0,0,.549,1.327,1.029,1.029,0,0,0,.388.077,1.014,1.014,0,0,0,.937-.626l1.164-2.812A1.014,1.014,0,0,0,39.986.98Z" transform="translate(0.106 0.013)"/>
        <path id="Shape-9" data-name="Shape" d="M50.339,17.627a1.014,1.014,0,0,0,.388-.078l2.811-1.164a1.014,1.014,0,1,0-.776-1.874l-2.812,1.164a1.014,1.014,0,0,0,.388,1.953Z" transform="translate(0.277 0.207)"/>
        <path id="Shape-10" data-name="Shape" d="M9.341,17.549a1.015,1.015,0,1,0,.777-1.874L7.306,14.51a1.014,1.014,0,0,0-.776,1.874Z" transform="translate(-0.345 0.207)"/>
      </g>
    </g>
  </g>
</svg>
